# xmcd CD database file
# Copyright (C) 1993-1998 Ti Kan
#
# Track frame offsets:
#	150
#	10150
#	28467
#	42155
#	55175
#	69695
#	87550
#	104235
#	119990
#	135352
#
# Disc length: 1959 seconds
#
# Revision: 1
# Processed by: cddbd v1.4b41PL1 Copyright (c) Steve Scherf et al.
# Submitted via: CDValet v3.31 - Copyright (c) 1997 Greg Leichner
#
DISCID=9707a50a
DTITLE=Susi Beatty - One Of A Kind
DYEAR=1900
DGENRE=
TTITLE0=Be Still My Breaking Heart
TTITLE1=Waiting For Goodbye
TTITLE2=Hard Baby To Rock
TTITLE3=If This Ain't Love
TTITLE4=Can't Trust My Heart
TTITLE5=Nobody Loves Me Like The Blues
TTITLE6=There's A Phone On Every Corner
TTITLE7=Heart From A Stone
TTITLE8=Rock-A-Lot
TTITLE9=It'll All Work Out
EXTD=
EXTT0=
EXTT1=
EXTT2=
EXTT3=
EXTT4=
EXTT5=
EXTT6=
EXTT7=
EXTT8=
EXTT9=
PLAYORDER=
